<svg id="_x31__x2C_5" enable-background="new 0 0 36 36" height="512" viewBox="0 0 36 36" width="512" xmlns="http://www.w3.org/2000/svg"><path d="m27.623 31.833c-6.917 0-11.667 3.583-15 3.583s-10.333-1.916-10.333-17.249 9.417-17.584 13.083-17.584c17.167 0 24.5 31.25 12.25 31.25z" fill="#efefef"/><path d="m3.5 6c-.827 0-1.5-.673-1.5-1.5s.673-1.5 1.5-1.5 1.5.673 1.5 1.5-.673 1.5-1.5 1.5zm0-2c-.276 0-.5.224-.5.5s.224.5.5.5.5-.224.5-.5-.224-.5-.5-.5z" fill="#a4afc1"/><path d="m29.25 8.75v13.5c0 1.105-.895 2-2 2h-11.5l-5 5v-5h-2c-1.105 0-2-.895-2-2v-13.5c0-1.105.895-2 2-2h18.5c1.105 0 2 .895 2 2z" fill="#f3f3f1"/><path d="m13 27v-2.75h-2c-1.105 0-2-.895-2-2v-13.5c0-1.105.895-2 2-2h-2.25c-1.105 0-2 .895-2 2v13.5c0 1.105.895 2 2 2h2v5z" fill="#d5dbe1"/><path d="m18 18h-1.5v-4c0-.276-.224-.5-.5-.5s-.5.224-.5.5v4h-1.5v-4c0-1.103.897-2 2-2s2 .897 2 2z"/><path d="m14.75 15h2.5v1.5h-2.5z"/><path d="m20 12h1.5v6h-1.5z"/><path d="m10.75 30c-.097 0-.194-.019-.287-.057-.28-.116-.463-.389-.463-.693v-4.25h-1.25c-1.517 0-2.75-1.233-2.75-2.75v-13.5c0-1.517 1.233-2.75 2.75-2.75h18.5c1.517 0 2.75 1.233 2.75 2.75v13.5c0 1.517-1.233 2.75-2.75 2.75h-11.189l-4.78 4.78c-.144.144-.336.22-.531.22zm-2-22.5c-.689 0-1.25.561-1.25 1.25v13.5c0 .689.561 1.25 1.25 1.25h2c.414 0 .75.336.75.75v3.189l3.72-3.72c.141-.141.332-.22.53-.22h11.5c.689 0 1.25-.561 1.25-1.25v-13.499c0-.689-.561-1.25-1.25-1.25z"/></svg>