<?xml version="1.0" encoding="iso-8859-1"?>
<!-- Generator: Adobe Illustrator 19.0.0, SVG Export Plug-In . SVG Version: 6.00 Build 0)  -->
<svg version="1.1" id="Capa_1" xmlns="http://www.w3.org/2000/svg" xmlns:xlink="http://www.w3.org/1999/xlink" x="0px" y="0px"
	 viewBox="0 0 512.001 512.001" style="enable-background:new 0 0 512.001 512.001;" xml:space="preserve">
<g>
	<g>
		<g>
			<circle cx="318.616" cy="416.973" r="20.005"/>
			<path d="M464.272,150.546c-3.724-7.986-9.19-14.804-15.937-20.075L304.84,12.769l-0.002,0.002
				c-11.236-9.373-25.442-13.834-40.027-12.557c-14.048,1.229-26.82,7.649-36.177,18.112L60.561,149.9l0.01,0.013
				c-10.937,8.219-18.025,21.298-18.025,36.001v75.02h30.008v30.008h30.008v-30.008h30.008v-75.02c0-4.858-0.783-9.535-2.214-13.921
				l112.225-67.988l106.802,87.603l-47.906,131.62c-55.327,8.302-97.888,56.149-97.888,113.752v45.012h-90.024v30.008h350.094
				v-30.008h-30.008v-45.012c0-29.131-10.89-55.762-28.806-76.05l61.263-168.318C471.135,178.804,470.481,163.865,464.272,150.546z
				 M102.562,230.926H72.554v-45.012c0-8.273,6.731-15.004,15.004-15.004s15.004,6.731,15.004,15.004V230.926z M111.905,148.085
				c-0.063-0.041-0.126-0.081-0.189-0.121l104.091-81.485c1.133,5.372,3.047,10.49,5.673,15.224L111.905,148.085z M269.605,80.025
				c-13.811,0-25.007-11.196-25.007-25.007c0-13.811,11.196-25.007,25.007-25.007c13.811,0,25.007,11.196,25.007,25.007
				C294.611,68.829,283.415,80.025,269.605,80.025z M291.648,105.44c7.685-3.351,14.555-8.446,20.101-15.057
				c5.817-6.932,9.749-15.006,11.618-23.603l69.025,56.618c-0.411,0.18-0.825,0.349-1.233,0.539
				c-13.318,6.211-23.421,17.236-28.447,31.044l-2.453,6.739L291.648,105.44z M403.642,481.993H233.597v-45.012
				c0-46.882,38.141-85.023,85.023-85.023s85.023,38.141,85.023,85.023V481.993z M380.509,340.056
				c-13.914-8.915-29.864-14.917-46.985-17.142l40.636-111.647c5.74,6.186,12.974,11.147,21.434,14.226
				c6.141,2.235,12.503,3.347,18.849,3.347c2.24,0,4.476-0.154,6.701-0.431L380.509,340.056z M414.424,198.79
				c-13.811,0-25.007-11.196-25.007-25.007c0-13.811,11.196-25.007,25.007-25.007c13.811,0,25.007,11.196,25.007,25.007
				C439.431,187.594,428.235,198.79,414.424,198.79z"/>
		</g>
	</g>
</g>
<g>
</g>
<g>
</g>
<g>
</g>
<g>
</g>
<g>
</g>
<g>
</g>
<g>
</g>
<g>
</g>
<g>
</g>
<g>
</g>
<g>
</g>
<g>
</g>
<g>
</g>
<g>
</g>
<g>
</g>
</svg>
